<svg id="Capa_1" fill="white" enable-background="new 0 0 512 512" height="512" viewBox="0 0 512 512" width="512" xmlns="http://www.w3.org/2000/svg"><g><path d="m497 0h-482c-8.284 0-15 6.716-15 15v482c0 8.284 6.716 15 15 15h482c8.284 0 15-6.716 15-15v-482c0-8.284-6.716-15-15-15zm-15 482h-452v-452h452z"/><path d="m61 396c0 30.327 24.673 55 55 55 25.127 0 46.356-16.943 52.904-40h34.193c6.547 23.057 27.777 40 52.904 40s46.356-16.943 52.904-40h34.192c6.547 23.057 27.777 40 52.904 40 30.327 0 55-24.673 55-55s-24.673-55-55-55c-25.127 0-46.356 16.943-52.904 40h-34.192c-6.547-23.057-27.777-40-52.904-40s-46.356 16.943-52.904 40h-34.193c-5.192-18.285-19.619-32.711-37.904-37.904v-34.193c18.285-5.192 32.711-19.619 37.904-37.904h34.193c6.547 23.057 27.777 40 52.904 40s46.356-16.943 52.904-40h34.192c6.547 23.057 27.777 40 52.904 40 30.327 0 55-24.673 55-55 0-25.127-16.943-46.356-40-52.904v-34.193c23.057-6.547 40-27.777 40-52.904 0-30.327-24.673-55-55-55-25.127 0-46.356 16.943-52.904 40h-34.192c-6.549-23.055-27.778-39.998-52.905-39.998s-46.356 16.943-52.904 40h-34.193c-6.547-23.057-27.776-40-52.903-40-30.327 0-55 24.673-55 55s24.673 55 55 55c25.127 0 46.356-16.943 52.904-40h34.193c6.547 23.057 27.777 40 52.904 40s46.356-16.943 52.904-40h34.192c5.192 18.285 19.619 32.711 37.904 37.904v34.193c-18.285 5.192-32.711 19.619-37.904 37.904h-34.192c-6.547-23.057-27.777-40-52.904-40s-46.356 16.943-52.904 40h-34.193c-6.547-23.057-27.777-40-52.904-40-30.327 0-55 24.673-55 55 0 25.127 16.943 46.356 40 52.904v34.193c-23.057 6.546-40 27.775-40 52.902zm335-25c13.785 0 25 11.215 25 25s-11.215 25-25 25-25-11.215-25-25 11.215-25 25-25zm-140 0c13.785 0 25 11.215 25 25s-11.215 25-25 25-25-11.215-25-25 11.215-25 25-25zm-165-255c0-13.785 11.215-25 25-25 1.2 0 2.378.09 3.533.254l-28.279 28.279c-.164-1.155-.254-2.333-.254-3.533zm25 25c-1.2 0-2.378-.09-3.533-.254l28.279-28.279c.164 1.155.254 2.333.254 3.533 0 13.785-11.215 25-25 25zm115-25c0-13.785 11.215-25 25-25 1.2 0 2.378.09 3.533.254l-28.279 28.279c-.164-1.155-.254-2.333-.254-3.533zm25 25c-1.2 0-2.378-.09-3.533-.254l28.279-28.279c.164 1.155.254 2.333.254 3.533 0 13.785-11.215 25-25 25zm165-25c0 13.785-11.215 25-25 25-1.199 0-2.378-.09-3.533-.254l28.279-28.279c.164 1.155.254 2.333.254 3.533zm-49.746 3.533c-.164-1.155-.254-2.333-.254-3.533 0-13.785 11.215-25 25-25 1.199 0 2.378.09 3.533.254zm24.746 111.467c13.785 0 25 11.215 25 25s-11.215 25-25 25-25-11.215-25-25 11.215-25 25-25zm-115 25c0 13.785-11.215 25-25 25-1.2 0-2.378-.09-3.533-.254l28.279-28.279c.164 1.155.254 2.333.254 3.533zm-25-25c1.2 0 2.378.09 3.533.254l-28.279 28.279c-.164-1.155-.254-2.333-.254-3.533 0-13.785 11.215-25 25-25zm-115 25c0 13.785-11.215 25-25 25-1.2 0-2.378-.09-3.533-.254l28.279-28.279c.164 1.155.254 2.333.254 3.533zm-49.746 3.533c-.164-1.155-.254-2.333-.254-3.533 0-13.785 11.215-25 25-25 1.2 0 2.378.09 3.533.254zm24.746 111.467c13.785 0 25 11.215 25 25s-11.215 25-25 25-25-11.215-25-25 11.215-25 25-25z"/></g></svg>